<?xml version="1.0" standalone="no"?>
<!DOCTYPE svg PUBLIC "-//W3C//DTD SVG 20010904//EN"
 "http://www.w3.org/TR/2001/REC-SVG-20010904/DTD/svg10.dtd">
<svg version="1.0" xmlns="http://www.w3.org/2000/svg"
 width="700.000000pt" height="700.000000pt" viewBox="0 0 700.000000 700.000000"
 preserveAspectRatio="xMidYMid meet">
<metadata>
Created by potrace 1.11, written by Peter Selinger 2001-2013
</metadata>
<g transform="translate(0.000000,700.000000) scale(0.100000,-0.100000)"
fill="#000000" stroke="none">
<path d="M2626 6120 c-1 -3 -2 -134 -2 -291 l1 -287 -325 -1 c-179 -1 -336 -3
-349 -6 -234 -45 -409 -202 -469 -420 -21 -75 -22 -105 -25 -490 l-2 -250
-280 -1 c-154 -1 -285 -2 -290 -3 -7 -1 -10 -100 -10 -288 l0 -288 292 -3 292
-2 0 -290 -1 -290 -291 -2 -292 -3 0 -287 c0 -186 3 -289 10 -291 5 -2 137 -3
292 -3 l281 1 0 -310 c0 -170 3 -330 7 -355 32 -227 200 -417 423 -479 55 -15
106 -20 239 -21 92 -1 242 -2 333 -3 l165 -2 1 -280 c1 -154 2 -285 3 -290 1
-7 98 -10 284 -9 155 1 285 2 290 3 4 0 7 131 7 290 l0 289 290 1 290 1 0
-289 c0 -222 3 -290 13 -293 6 -2 138 -4 292 -4 l280 1 0 290 0 290 210 2
c435 4 456 4 529 25 189 51 349 208 401 391 24 84 24 81 26 430 1 286 3 317
18 318 9 1 140 2 291 3 l275 1 0 290 0 290 -292 3 -292 2 0 290 0 290 288 0
c222 0 290 3 293 13 2 6 4 138 4 292 l-1 280 -292 0 -292 0 0 315 c-1 356 -3
377 -37 468 -64 170 -190 293 -364 354 -70 24 -151 29 -490 31 l-275 2 0 290
0 290 -290 0 -290 0 -3 -292 -2 -291 -290 0 -290 0 -2 291 -3 292 -288 0
c-159 0 -290 -2 -291 -5z m2329 -2620 l0 -1455 -1455 0 -1455 0 -1 1457 -2
1456 1457 -1 1456 -2 0 -1455z"/>
<path d="M2631 4370 c-8 -6 -9 -1739 -1 -1741 17 -4 1740 -3 1741 1 1 3 2 395
3 873 1 574 -2 867 -9 868 -33 4 -1728 3 -1734 -1z m1159 -870 l0 -290 -290 0
-290 0 0 290 0 290 290 0 290 0 0 -290z"/>
</g>
</svg>
